<?xml version="1.0" encoding="UTF-8"?>
<svg id="Capa_1" data-name="Capa 1" xmlns="http://www.w3.org/2000/svg" xmlns:xlink="http://www.w3.org/1999/xlink" viewBox="0 0 1280 1280">
  <defs>
    <style>
      .cls-1 {
        fill: url(#Degradado_sin_nombre_19);
      }

      .cls-2 {
        fill: #fdfdfd;
      }
    </style>
    <linearGradient id="Degradado_sin_nombre_19" data-name="Degradado sin nombre 19" x1="0" y1="5431.05" x2="773.95" y2="5431.05" gradientTransform="translate(0 6071.24) scale(1 -1)" gradientUnits="userSpaceOnUse">
      <stop offset="0" stop-color="#09b291" stop-opacity=".9"/>
      <stop offset=".14" stop-color="#08b288" stop-opacity=".9"/>
      <stop offset=".37" stop-color="#04b36e" stop-opacity=".9"/>
      <stop offset=".53" stop-color="#00b358" stop-opacity=".9"/>
      <stop offset="1" stop-color="#008f35" stop-opacity=".9"/>
    </linearGradient>
  </defs>
  <path class="cls-2" d="m1173.85,614.45h-365.71V138.22c0-76.27,47.57-138.22,106.15-138.22h259.57c58.57,0,106.15,61.95,106.15,138.22v338c0,76.27-47.57,138.22-106.15,138.22Z"/>
  <path class="cls-2" d="m1173.85,655.1h-365.71v476.23c0,76.27,47.57,138.22,106.15,138.22h259.57c58.57,0,106.15-61.95,106.15-138.22v-338c0-76.27-47.57-138.22-106.15-138.22Z"/>
  <path class="cls-1" d="m773.95,868.05V78.21c-4.16-16.26-11-31.36-20.52-44.14C736.78,11.62,716.27.39,692.18.39s-44.6,11.23-61.25,33.68-24.98,49.95-24.98,82.47v549.4l-44.9,35.23L0,1145.65v134.35l588.12-232.69,185.83-179.26Z"/>
</svg>