<?xml version="1.0" encoding="UTF-8"?>
<svg id="Capa_1" data-name="Capa 1" xmlns="http://www.w3.org/2000/svg" xmlns:xlink="http://www.w3.org/1999/xlink" viewBox="0 0 1280 1280">
  <defs>
    <style>
      .cls-1 {
        letter-spacing: -.03em;
      }

      .cls-2 {
        letter-spacing: 0em;
      }

      .cls-3 {
        letter-spacing: -.01em;
      }

      .cls-4 {
        fill: url(#Degradado_sin_nombre_19);
      }

      .cls-5 {
        fill: #fff;
        font-family: CornerStoreJF, CornerStoreJF;
        font-size: 323.13px;
        isolation: isolate;
      }

      .cls-6 {
        fill: #fdfdfd;
      }

      .cls-7 {
        fill: url(#Degradado_sin_nombre_19-2);
      }
    </style>
    <linearGradient id="Degradado_sin_nombre_19" data-name="Degradado sin nombre 19" x1="727.22" y1="3142.69" x2="1090.18" y2="3142.69" gradientTransform="translate(0 3326.17) scale(1 -1)" gradientUnits="userSpaceOnUse">
      <stop offset="0" stop-color="#09b291" stop-opacity=".9"/>
      <stop offset=".14" stop-color="#08b288" stop-opacity=".9"/>
      <stop offset=".37" stop-color="#04b36e" stop-opacity=".9"/>
      <stop offset=".53" stop-color="#00b358" stop-opacity=".9"/>
      <stop offset="1" stop-color="#008f35" stop-opacity=".9"/>
    </linearGradient>
    <linearGradient id="Degradado_sin_nombre_19-2" data-name="Degradado sin nombre 19" y1="2751.2" y2="2751.2" xlink:href="#Degradado_sin_nombre_19"/>
  </defs>
  <text id="Justo_como_en_casa" data-name="Justocomoen casa" class="cls-5" transform="translate(0 1125.87)"><tspan class="cls-1" x="0" y="0">J</tspan><tspan class="cls-2" x="188.06" y="0">et</tspan><tspan class="cls-3" x="406.49" y="0">B</tspan><tspan x="726.06" y="0">oom</tspan></text>
  <path class="cls-4" d="m969.07,366.95h-241.85V122.68c0-67.83,54.3-122.68,121.46-122.68h120.03c67.16,0,121.46,54.84,121.46,122.68v121.24c.71,68.19-53.94,123.04-121.1,123.04Z"/>
  <path class="cls-7" d="m969.07,391.49h-241.85v244.27c0,67.83,54.3,122.68,121.46,122.68h120.03c67.16,0,121.46-54.84,121.46-122.68v-121.24c.71-68.19-53.94-123.04-121.1-123.04Z"/>
  <path class="cls-6" d="m701.14,518.5V46.91c-3.22-9.74-8.57-18.76-15.72-26.34-12.86-13.35-28.58-20.21-47.16-20.21s-34.3,6.86-47.16,20.21c-12.86,13.35-19.29,29.95-19.29,49.43v327.98l-34.3,21.29L105.62,684.83v80.46l452.62-138.92,142.9-107.89Z"/>
</svg>